<mxfile host="app.diagrams.net" modified="2022-11-08T09:48:31.265Z" agent="5.0 (Macintosh; Intel Mac OS X 10_15_7) AppleWebKit/537.36 (KHTML, like Gecko) Chrome/107.0.0.0 Safari/537.36" etag="AVSSkhPKz4MY1hdz-pVw" version="20.5.3" type="github">
  <diagram id="cISqrWhdumvlEyyOrCwD" name="Page-1">
    <mxGraphModel dx="860" dy="558" grid="1" gridSize="10" guides="1" tooltips="1" connect="1" arrows="1" fold="1" page="1" pageScale="1" pageWidth="827" pageHeight="1169" background="#F1FAEE" math="0" shadow="1">
      <root>
        <mxCell id="0" />
        <mxCell id="1" parent="0" />
        <mxCell id="Zguul4JbDPGOfQpuk0xG-1" value="组装层" style="rounded=0;whiteSpace=wrap;html=1;strokeColor=#457B9D;fontColor=#1D3557;fillColor=#A8DADC;sketch=1;" vertex="1" parent="1">
          <mxGeometry x="110" y="450" width="460" height="60" as="geometry" />
        </mxCell>
        <mxCell id="Zguul4JbDPGOfQpuk0xG-2" value="normalize" style="rounded=0;whiteSpace=wrap;html=1;sketch=1;hachureGap=4;jiggle=2;fontFamily=Architects Daughter;fontSource=https%3A%2F%2Ffonts.googleapis.com%2Fcss%3Ffamily%3DArchitects%2BDaughter;fontSize=20;fillColor=#A8DADC;strokeColor=#457B9D;fontColor=#1D3557;" vertex="1" parent="1">
          <mxGeometry x="110" y="360" width="460" height="60" as="geometry" />
        </mxCell>
        <mxCell id="Zguul4JbDPGOfQpuk0xG-3" value="&lt;font style=&quot;font-size: 16px;&quot;&gt;抹平不同UI库的表单使用差异&lt;/font&gt;" style="text;html=1;align=left;verticalAlign=middle;resizable=0;points=[];autosize=1;strokeColor=none;fillColor=none;fontSize=16;fontFamily=Architects Daughter;fontColor=#1D3557;sketch=1;hachureGap=4;jiggle=2;fontSource=https%3A%2F%2Ffonts.googleapis.com%2Fcss%3Ffamily%3DArchitects%2BDaughter;" vertex="1" parent="1">
          <mxGeometry x="600" y="375" width="230" height="30" as="geometry" />
        </mxCell>
        <mxCell id="Zguul4JbDPGOfQpuk0xG-4" value="" style="rounded=0;whiteSpace=wrap;html=1;sketch=1;hachureGap=4;jiggle=2;strokeColor=#457B9D;fontFamily=Architects Daughter;fontSource=https%3A%2F%2Ffonts.googleapis.com%2Fcss%3Ffamily%3DArchitects%2BDaughter;fontSize=11;fontColor=#1D3557;fillColor=#A8DADC;" vertex="1" parent="1">
          <mxGeometry x="30" y="170" width="620" height="90" as="geometry" />
        </mxCell>
        <mxCell id="Zguul4JbDPGOfQpuk0xG-5" value="字段协议" style="rounded=1;whiteSpace=wrap;html=1;sketch=1;hachureGap=4;jiggle=2;strokeColor=#457B9D;fontFamily=Architects Daughter;fontSource=https%3A%2F%2Ffonts.googleapis.com%2Fcss%3Ffamily%3DArchitects%2BDaughter;fontSize=11;fontColor=#1D3557;fillColor=#A8DADC;" vertex="1" parent="1">
          <mxGeometry x="60" y="185" width="90" height="55" as="geometry" />
        </mxCell>
        <mxCell id="Zguul4JbDPGOfQpuk0xG-6" value="联动协议" style="rounded=1;whiteSpace=wrap;html=1;sketch=1;hachureGap=4;jiggle=2;strokeColor=#457B9D;fontFamily=Architects Daughter;fontSource=https%3A%2F%2Ffonts.googleapis.com%2Fcss%3Ffamily%3DArchitects%2BDaughter;fontSize=11;fontColor=#1D3557;fillColor=#A8DADC;" vertex="1" parent="1">
          <mxGeometry x="210" y="185" width="90" height="55" as="geometry" />
        </mxCell>
        <mxCell id="Zguul4JbDPGOfQpuk0xG-7" value="校验协议" style="rounded=1;whiteSpace=wrap;html=1;sketch=1;hachureGap=4;jiggle=2;strokeColor=#457B9D;fontFamily=Architects Daughter;fontSource=https%3A%2F%2Ffonts.googleapis.com%2Fcss%3Ffamily%3DArchitects%2BDaughter;fontSize=11;fontColor=#1D3557;fillColor=#A8DADC;" vertex="1" parent="1">
          <mxGeometry x="360" y="185" width="90" height="55" as="geometry" />
        </mxCell>
        <mxCell id="Zguul4JbDPGOfQpuk0xG-8" value="布局协议" style="rounded=1;whiteSpace=wrap;html=1;sketch=1;hachureGap=4;jiggle=2;strokeColor=#457B9D;fontFamily=Architects Daughter;fontSource=https%3A%2F%2Ffonts.googleapis.com%2Fcss%3Ffamily%3DArchitects%2BDaughter;fontSize=11;fontColor=#1D3557;fillColor=#A8DADC;" vertex="1" parent="1">
          <mxGeometry x="510" y="185" width="90" height="55" as="geometry" />
        </mxCell>
        <mxCell id="Zguul4JbDPGOfQpuk0xG-9" value="&lt;font style=&quot;font-size: 17px;&quot;&gt;组装表单子项&lt;/font&gt;" style="text;html=1;align=left;verticalAlign=middle;resizable=0;points=[];autosize=1;strokeColor=none;fillColor=none;fontSize=17;fontFamily=Architects Daughter;fontColor=#1D3557;sketch=1;hachureGap=4;jiggle=2;fontSource=https%3A%2F%2Ffonts.googleapis.com%2Fcss%3Ffamily%3DArchitects%2BDaughter;" vertex="1" parent="1">
          <mxGeometry x="600" y="465" width="130" height="30" as="geometry" />
        </mxCell>
      </root>
    </mxGraphModel>
  </diagram>
</mxfile>
